<svg width="618" height="90" viewBox="0 0 618 90" fill="none" xmlns="http://www.w3.org/2000/svg">
  <path d="M42.416 18.368L39.642 17.2257L39.6219 17.2744L39.6036 17.3237L42.416 18.368ZM91.184 73.536L88.3801 72.4691L88.3599 72.5223L88.3417 72.5762L91.184 73.536ZM112.176 18.368L114.98 19.4349L114.993 19.4008L115.005 19.3665L112.176 18.368ZM121.264 88H118.264V91H121.264V88ZM136.496 88V91H139.496V88H136.496ZM96.944 16.064L99.7479 17.1309L99.7681 17.0777L99.7863 17.0237L96.944 16.064ZM75.952 71.232L73.1481 70.1651L73.1352 70.1992L73.123 70.2335L75.952 71.232ZM27.184 16.064L29.9959 17.1097L30.0118 17.0669L30.0263 17.0237L27.184 16.064ZM0.432 88L-2.37986 86.9543L-3.88439 91H0.432V88ZM16.56 88V91H18.6462L19.3724 89.0443L16.56 88ZM45.19 19.5102C45.5121 18.728 45.8729 18.2548 46.1812 17.9968C46.4431 17.7777 46.7266 17.656 47.152 17.656V11.656C43.1607 11.656 40.7902 14.4372 39.642 17.2257L45.19 19.5102ZM47.152 17.656C47.6512 17.656 47.9548 17.8266 48.1507 18.0382C48.3574 18.2614 48.632 18.7414 48.632 19.648H54.632C54.632 17.4826 53.9466 15.4665 52.5533 13.9618C51.1492 12.4454 49.2128 11.656 47.152 11.656V17.656ZM48.632 19.648V70.592H54.632V19.648H48.632ZM48.632 70.592C48.632 76.8332 50.3914 82.3979 54.2533 86.4151C58.1352 90.4531 63.7647 92.536 70.704 92.536V86.536C64.9713 86.536 61.0648 84.8429 58.5787 82.2569C56.0726 79.6501 54.632 75.7428 54.632 70.592H48.632ZM70.704 92.536C77.0357 92.536 82.053 90.8302 85.9563 87.52C89.7969 84.2631 92.2707 79.6952 94.0263 74.4958L88.3417 72.5762C86.7693 77.2328 84.7631 80.6649 82.0757 82.944C79.451 85.1698 75.8923 86.536 70.704 86.536V92.536ZM93.9879 74.6029L114.98 19.4349L109.372 17.3011L88.3801 72.4691L93.9879 74.6029ZM115.005 19.3665C115.454 18.0942 116.295 17.656 116.912 17.656V11.656C113.177 11.656 110.434 14.2898 109.347 17.3695L115.005 19.3665ZM116.912 17.656C117.399 17.656 117.648 17.8161 117.806 17.9931C117.989 18.1991 118.264 18.6868 118.264 19.648H124.264C124.264 17.5372 123.643 15.5289 122.29 14.0069C120.912 12.4559 118.985 11.656 116.912 11.656V17.656ZM118.264 19.648V88H124.264V19.648H118.264ZM121.264 91H136.496V85H121.264V91ZM139.496 88V18.88H133.496V88H139.496ZM139.496 18.88C139.496 12.6943 137.732 7.15796 133.848 3.15825C129.949 -0.858381 124.291 -2.936 117.296 -2.936V3.064C123.101 3.064 127.043 4.76237 129.544 7.33774C132.06 9.93003 133.496 13.8017 133.496 18.88H139.496ZM117.296 -2.936C110.963 -2.936 105.972 -1.22926 102.097 2.08943C98.2893 5.35013 95.8524 9.91942 94.1017 15.1042L99.7863 17.0237C101.364 12.3526 103.343 8.92186 105.999 6.64656C108.588 4.42924 112.109 3.064 117.296 3.064V-2.936ZM94.1401 14.9971L73.1481 70.1651L78.7559 72.2989L99.7479 17.1309L94.1401 14.9971ZM73.123 70.2335C72.7322 71.3408 71.9868 71.816 71.088 71.816V77.816C74.7972 77.816 77.6358 75.4752 78.781 72.2305L73.123 70.2335ZM71.088 71.816C70.5975 71.816 70.3373 71.6527 70.1756 71.4742C69.9933 71.2728 69.736 70.8185 69.736 69.952H63.736C63.736 72.0295 64.3747 74.0072 65.7284 75.5018C67.1027 77.0193 69.0185 77.816 71.088 77.816V71.816ZM69.736 69.952V18.88H63.736V69.952H69.736ZM69.736 18.88C69.736 12.6943 67.9716 7.15796 64.0884 3.15825C60.1888 -0.858381 54.5308 -2.936 47.536 -2.936V3.064C53.3412 3.064 57.2832 4.76237 59.7836 7.33774C62.3004 9.93003 63.736 13.8017 63.736 18.88H69.736ZM47.536 -2.936C41.203 -2.936 36.2116 -1.22926 32.3366 2.08943C28.5293 5.35013 26.0924 9.91942 24.3417 15.1042L30.0263 17.0237C31.6036 12.3526 33.5827 8.92186 36.2394 6.64656C38.8284 4.42924 42.349 3.064 47.536 3.064V-2.936ZM24.3721 15.0183L-2.37986 86.9543L3.24386 89.0457L29.9959 17.1097L24.3721 15.0183ZM0.432 91H16.56V85H0.432V91ZM19.3724 89.0443L45.2284 19.4123L39.6036 17.3237L13.7476 86.9557L19.3724 89.0443ZM156.219 20.416V17.416H153.219V20.416H156.219ZM227.387 20.416H230.387V17.416H227.387V20.416ZM214.075 20.416V17.416H211.075V20.416H214.075ZM169.915 20.416H172.915V17.416H169.915V20.416ZM153.219 20.416V61.376H159.219V20.416H153.219ZM153.219 61.376C153.219 69.8329 155.937 77.3336 161.552 82.7107C167.157 88.0785 175.303 91 185.531 91V85C176.431 85 169.921 82.4175 165.702 78.3773C161.493 74.3464 159.219 68.5351 159.219 61.376H153.219ZM185.531 91H198.075V85H185.531V91ZM198.075 91C208.303 91 216.449 88.0785 222.054 82.7107C227.669 77.3336 230.387 69.8329 230.387 61.376H224.387C224.387 68.5351 222.113 74.3464 217.904 78.3773C213.685 82.4175 207.175 85 198.075 85V91ZM230.387 61.376V20.416H224.387V61.376H230.387ZM227.387 17.416H214.075V23.416H227.387V17.416ZM211.075 20.416V60.864H217.075V20.416H211.075ZM211.075 60.864C211.075 64.0742 209.93 66.7156 207.848 68.5823C205.741 70.4715 202.389 71.816 197.563 71.816V77.816C203.489 77.816 208.393 76.1525 211.854 73.0497C215.34 69.9244 217.075 65.5898 217.075 60.864H211.075ZM197.563 71.816H186.555V77.816H197.563V71.816ZM186.555 71.816C181.728 71.816 178.336 70.4709 176.193 68.571C174.077 66.6954 172.915 64.0536 172.915 60.864H166.915C166.915 65.6104 168.697 69.9446 172.213 73.061C175.702 76.1531 180.63 77.816 186.555 77.816V71.816ZM172.915 60.864V20.416H166.915V60.864H172.915ZM169.915 17.416H156.219V23.416H169.915V17.416ZM244.046 74.816V71.816H241.046V74.816H244.046ZM244.046 88H241.046V91H244.046V88ZM302.798 33.472V36.472H305.798V33.472H302.798ZM302.798 20.416H305.798V17.416H302.798V20.416ZM265.294 17.416C256.99 17.416 250.602 19.4057 246.3 23.5519C241.977 27.7184 240.278 33.5611 240.278 40.128H246.278C246.278 34.5349 247.715 30.5216 250.464 27.8721C253.234 25.2023 257.854 23.416 265.294 23.416V17.416ZM240.278 40.128C240.278 45.6985 241.51 51.531 245.754 55.95C250.016 60.3873 256.772 62.84 266.574 62.84V56.84C257.688 56.84 252.796 54.6207 250.082 51.794C247.35 48.949 246.278 44.9255 246.278 40.128H240.278ZM266.574 62.84H282.574V56.84H266.574V62.84ZM282.574 62.84C285.78 62.84 287.328 63.3822 288.068 63.9615C288.622 64.3957 289.174 65.2142 289.174 67.392H295.174C295.174 64.1938 294.318 61.2363 291.768 59.2385C289.404 57.3858 286.152 56.84 282.574 56.84V62.84ZM289.174 67.392C289.174 69.5704 288.648 70.3805 288.177 70.7779C287.576 71.2846 286.257 71.816 283.342 71.816V77.816C286.699 77.816 289.796 77.2594 292.043 75.3661C294.42 73.3635 295.174 70.4616 295.174 67.392H289.174ZM283.342 71.816H244.046V77.816H283.342V71.816ZM241.046 74.816V88H247.046V74.816H241.046ZM244.046 91H283.342V85H244.046V91ZM283.342 91C291.791 91 298.214 88.7439 302.506 84.3743C306.787 80.0166 308.486 74.0264 308.486 67.52H302.486C302.486 73.0456 301.049 77.2954 298.226 80.1697C295.414 83.0321 290.765 85 283.342 85V91ZM308.486 67.52C308.486 61.8726 307.215 56.1594 302.884 51.9073C298.573 47.6754 291.798 45.448 282.062 45.448V51.448C291.014 51.448 295.951 53.5086 298.68 56.1887C301.389 58.8486 302.486 62.6714 302.486 67.52H308.486ZM282.062 45.448H266.19V51.448H282.062V45.448ZM266.19 45.448C262.609 45.448 261.116 44.811 260.496 44.2858C260.025 43.8876 259.59 43.1498 259.59 41.152H253.59C253.59 43.8902 254.179 46.8003 256.62 48.8662C258.912 50.805 262.219 51.448 266.19 51.448V45.448ZM259.59 41.152C259.59 39.0577 260.107 38.1194 260.66 37.6231C261.284 37.0615 262.605 36.472 265.422 36.472V30.472C261.967 30.472 258.872 31.1625 256.648 33.1609C254.353 35.2246 253.59 38.1263 253.59 41.152H259.59ZM265.422 36.472H302.798V30.472H265.422V36.472ZM305.798 33.472V20.416H299.798V33.472H305.798ZM302.798 17.416H265.294V23.416H302.798V17.416ZM384.966 88V91H387.966V88H384.966ZM384.966 74.816H387.966V71.816H384.966V74.816ZM333.254 60.608V57.608H330.254V60.608H333.254ZM333.254 49.984H330.254V52.984H333.254V49.984ZM343.622 17.416C334.618 17.416 327.839 19.9527 323.337 24.6839C318.862 29.386 317.07 35.8019 317.07 42.688H323.07C323.07 36.7741 324.606 32.054 327.683 28.8201C330.733 25.6153 335.73 23.416 343.622 23.416V17.416ZM317.07 42.688V65.728H323.07V42.688H317.07ZM317.07 65.728C317.07 72.6141 318.862 79.03 323.337 83.7321C327.839 88.4633 334.618 91 343.622 91V85C335.73 85 330.733 82.8007 327.683 79.5959C324.606 76.362 323.07 71.6419 323.07 65.728H317.07ZM343.622 91H384.966V85H343.622V91ZM387.966 88V74.816H381.966V88H387.966ZM384.966 71.816H343.622V77.816H384.966V71.816ZM343.622 71.816C340.427 71.816 338.706 70.9696 337.775 70.0387C336.84 69.103 336.254 67.6341 336.254 65.472H330.254C330.254 68.6859 331.14 71.889 333.533 74.2813C335.93 76.6784 339.393 77.816 343.622 77.816V71.816ZM336.254 65.472V60.608H330.254V65.472H336.254ZM333.254 63.608H365.382V57.608H333.254V63.608ZM365.382 63.608C374.045 63.608 380.655 61.7876 385.095 57.7571C389.599 53.6677 391.294 47.8352 391.294 41.152H385.294C385.294 46.8848 383.853 50.7803 381.061 53.3149C378.205 55.9084 373.359 57.608 365.382 57.608V63.608ZM391.294 41.152C391.294 34.1315 389.464 28.0334 384.981 23.725C380.52 19.438 373.942 17.416 365.51 17.416V23.416C373.078 23.416 377.892 25.234 380.823 28.051C383.732 30.8466 385.294 35.1165 385.294 41.152H391.294ZM365.51 17.416H343.622V23.416H365.51V17.416ZM336.254 42.816C336.254 40.733 336.832 39.2499 337.785 38.2871C338.728 37.336 340.453 36.472 343.622 36.472V30.472C339.367 30.472 335.908 31.656 333.523 34.0648C331.148 36.4621 330.254 39.651 330.254 42.816H336.254ZM343.622 36.472H365.382V30.472H343.622V36.472ZM365.382 36.472C368.245 36.472 369.798 37.1867 370.625 37.9632C371.423 38.7128 371.982 39.9304 371.982 41.92H377.982C377.982 38.7896 377.069 35.7832 374.731 33.5888C372.422 31.4213 369.175 30.472 365.382 30.472V36.472ZM371.982 41.92C371.982 43.888 371.466 44.937 370.746 45.5705C369.942 46.2763 368.303 46.984 364.998 46.984V52.984C368.989 52.984 372.342 52.1557 374.706 50.0775C377.154 47.9269 377.982 44.944 377.982 41.92H371.982ZM364.998 46.984H333.254V52.984H364.998V46.984ZM336.254 49.984V42.816H330.254V49.984H336.254ZM467.442 44.48L466.335 41.6915L459.391 44.4473L466.313 47.2594L467.442 44.48ZM420.594 50.624V47.624H417.594V50.624H420.594ZM420.594 38.08H417.594V41.08H420.594V38.08ZM412.914 -1.4C410.06 -1.4 407.361 -0.726566 405.399 1.2083C403.43 3.15118 402.746 5.8304 402.746 8.64H408.746C408.746 6.7136 409.214 5.87282 409.613 5.4797C410.019 5.07856 410.904 4.6 412.914 4.6V-1.4ZM402.746 8.64V80.96H408.746V8.64H402.746ZM402.746 80.96C402.746 83.7696 403.43 86.4488 405.399 88.3917C407.361 90.3266 410.06 91 412.914 91V85C410.904 85 410.019 84.5214 409.613 84.1203C409.214 83.7272 408.746 82.8864 408.746 80.96H402.746ZM412.914 91H451.314V85H412.914V91ZM451.314 91C461.944 91 469.997 88.3931 475.418 83.5088C480.883 78.5849 483.242 71.7363 483.242 64.192H477.242C477.242 70.4717 475.313 75.5271 471.402 79.0513C467.447 82.6149 461.036 85 451.314 85V91ZM483.242 64.192C483.242 58.7305 481.977 54.0258 479.41 50.1759C476.842 46.3234 473.117 43.5475 468.571 41.7006L466.313 47.2594C469.959 48.7405 472.634 50.8286 474.418 53.5041C476.203 56.1822 477.242 59.6695 477.242 64.192H483.242ZM468.549 47.2685C473.018 45.4948 476.668 42.8511 479.172 39.0852C481.671 35.3271 482.858 30.7097 482.858 25.28H476.858C476.858 29.8343 475.869 33.2169 474.176 35.7628C472.488 38.3009 469.93 40.2652 466.335 41.6915L468.549 47.2685ZM482.858 25.28C482.858 17.6185 480.505 10.7854 475.017 5.91608C469.587 1.09706 461.531 -1.4 450.93 -1.4V4.6C460.681 4.6 467.089 6.90294 471.035 10.4039C474.923 13.8546 476.858 18.8615 476.858 25.28H482.858ZM450.93 -1.4H412.914V4.6H450.93V-1.4ZM420.594 53.624H451.698V47.624H420.594V53.624ZM451.698 53.624C455.744 53.624 458.262 54.5122 459.734 55.7512C461.113 56.9117 462.01 58.751 462.01 61.76H468.01C468.01 57.473 466.667 53.7443 463.598 51.1608C460.622 48.6558 456.484 47.624 451.698 47.624V53.624ZM462.01 61.76C462.01 64.6678 461.158 66.5628 459.776 67.7834C458.331 69.0597 455.828 70.024 451.698 70.024V76.024C456.656 76.024 460.809 74.8763 463.748 72.2806C466.75 69.6292 468.01 65.8922 468.01 61.76H462.01ZM451.698 70.024H422.258V76.024H451.698V70.024ZM422.258 70.024C422.031 70.024 422.407 69.9652 422.884 70.3359C423.149 70.5421 423.352 70.8133 423.474 71.1011C423.587 71.3684 423.594 71.5655 423.594 71.616H417.594C417.594 72.7934 417.998 74.137 419.2 75.0721C420.253 75.8908 421.461 76.024 422.258 76.024V70.024ZM423.594 71.616V50.624H417.594V71.616H423.594ZM423.594 17.984C423.594 18.121 423.528 18.636 423.035 19.0742C422.599 19.4618 422.207 19.448 422.258 19.448V13.448C421.285 13.448 420.061 13.6902 419.049 14.5898C417.98 15.54 417.594 16.823 417.594 17.984H423.594ZM422.258 19.448H451.442V13.448H422.258V19.448ZM451.442 19.448C455.605 19.448 458.061 20.4609 459.461 21.7461C460.821 22.9941 461.626 24.9058 461.626 27.712H467.626C467.626 23.7342 466.447 20.0139 463.519 17.3259C460.631 14.6751 456.495 13.448 451.442 13.448V19.448ZM461.626 27.712C461.626 30.5744 460.777 32.1684 459.492 33.1652C458.051 34.2826 455.516 35.08 451.314 35.08V41.08C456.072 41.08 460.193 40.2134 463.168 37.9068C466.299 35.4796 467.626 31.8896 467.626 27.712H461.626ZM451.314 35.08H420.594V41.08H451.314V35.08ZM423.594 38.08V17.984H417.594V38.08H423.594ZM523.09 17.416C513.444 17.416 505.219 20.3765 499.442 26.7541C493.707 33.087 490.778 42.3588 490.778 54.208H496.778C496.778 43.2732 499.481 35.649 503.89 30.7819C508.257 25.9595 514.688 23.416 523.09 23.416V17.416ZM490.778 54.208C490.778 66.0572 493.707 75.329 499.442 81.6619C505.219 88.0395 513.444 91 523.09 91V85C514.688 85 508.257 82.4565 503.89 77.6341C499.481 72.767 496.778 65.1428 496.778 54.208H490.778ZM523.09 91H537.298V85H523.09V91ZM537.298 91C546.885 91 555.106 88.0367 560.894 81.6654C566.645 75.3359 569.61 66.0656 569.61 54.208H563.61C563.61 65.1344 560.879 72.7601 556.454 77.6306C552.066 82.4593 545.631 85 537.298 85V91ZM569.61 54.208C569.61 42.3504 566.645 33.0801 560.894 26.7506C555.106 20.3793 546.885 17.416 537.298 17.416V23.416C545.631 23.416 552.066 25.9567 556.454 30.7854C560.879 35.6559 563.61 43.2816 563.61 54.208H569.61ZM537.298 17.416H523.09V23.416H537.298V17.416ZM536.018 36.472C541.329 36.472 544.526 37.8567 546.519 40.2755C548.625 42.832 549.914 47.1596 549.914 54.208H555.914C555.914 46.6644 554.579 40.624 551.149 36.4605C547.606 32.1593 542.355 30.472 536.018 30.472V36.472ZM549.914 54.208C549.914 61.2583 548.624 65.5452 546.528 68.0656C544.542 70.453 541.347 71.816 536.018 71.816V77.816C542.337 77.816 547.59 76.171 551.141 71.9024C554.58 67.7668 555.914 61.7497 555.914 54.208H549.914ZM536.018 71.816H524.37V77.816H536.018V71.816ZM524.37 71.816C518.968 71.816 515.783 70.4483 513.818 68.0722C511.737 65.5563 510.474 61.2728 510.474 54.208H504.474C504.474 61.7352 505.771 67.7557 509.194 71.8958C512.733 76.1757 517.996 77.816 524.37 77.816V71.816ZM510.474 54.208C510.474 47.1451 511.737 42.821 513.827 40.2689C515.799 37.8615 518.986 36.472 524.37 36.472V30.472C517.978 30.472 512.717 32.1545 509.185 36.4671C505.771 40.635 504.474 46.6789 504.474 54.208H510.474ZM524.37 36.472H536.018V30.472H524.37V36.472ZM576.069 20.416V17.416H573.069V20.416H576.069ZM576.069 33.472H573.069V36.472H576.069V33.472ZM585.285 33.472H588.285V30.472H585.285V33.472ZM617.413 88V91H620.413V88H617.413ZM617.413 75.584H620.413V72.584H617.413V75.584ZM598.981 33.472V30.472H595.981V33.472H598.981ZM617.669 33.472V36.472H620.669V33.472H617.669ZM617.669 20.416H620.669V17.416H617.669V20.416ZM598.981 20.416H595.981V23.416H598.981V20.416ZM598.981 4.41599H601.981V1.41599H598.981V4.41599ZM585.285 4.41599V1.41599H582.285V4.41599H585.285ZM585.285 20.416V23.416H588.285V20.416H585.285ZM573.069 20.416V33.472H579.069V20.416H573.069ZM576.069 36.472H585.285V30.472H576.069V36.472ZM582.285 33.472V64.704H588.285V33.472H582.285ZM582.285 64.704C582.285 73.7279 583.79 80.5103 587.805 84.9807C591.907 89.5469 597.973 91 605.253 91V85C598.581 85 594.663 83.6371 592.269 80.9713C589.788 78.2097 588.285 73.3441 588.285 64.704H582.285ZM605.253 91H617.413V85H605.253V91ZM620.413 88V75.584H614.413V88H620.413ZM617.413 72.584H608.069V78.584H617.413V72.584ZM608.069 72.584C605.165 72.584 603.943 71.9851 603.323 71.3178C602.643 70.5867 601.981 69.0301 601.981 65.472H595.981C595.981 69.4659 596.663 72.9653 598.927 75.4022C601.251 77.9029 604.573 78.584 608.069 78.584V72.584ZM601.981 65.472V33.472H595.981V65.472H601.981ZM598.981 36.472H617.669V30.472H598.981V36.472ZM620.669 33.472V20.416H614.669V33.472H620.669ZM617.669 17.416H598.981V23.416H617.669V17.416ZM601.981 20.416V4.41599H595.981V20.416H601.981ZM598.981 1.41599H585.285V7.41599H598.981V1.41599ZM582.285 4.41599V20.416H588.285V4.41599H582.285ZM585.285 17.416H576.069V23.416H585.285V17.416Z" fill="#62BF36" />
</svg>
  